<?xml version="1.0" encoding="utf-8"?>
<!-- Generator: Adobe Illustrator 19.0.1, SVG Export Plug-In . SVG Version: 6.00 Build 0)  -->
<svg version="1.1" id="Calque_1" xmlns="http://www.w3.org/2000/svg" xmlns:xlink="http://www.w3.org/1999/xlink" x="0px" y="0px"
	 viewBox="-575 337.4 127.6 127.6" style="enable-background:new -575 337.4 127.6 127.6;" xml:space="preserve">
<style type="text/css">
	.st0{fill:#FFFFFF;}
</style>
<g>
	<path class="st0" d="M-545.1,443.5c0-29.1,0-48.4,0-77.5c0,0,0,0,0,0c0.4-1.7,1.4-2.5,3.2-2.5c3.9,0,7.8,0,11.7,0
		c0.1,0,0.2,0,0.4,0c0-0.1,0-0.2,0-0.4c0-0.5,0-1,0-1.6c0-2.5,1.6-4.8,4-5.5c0.4-0.1,0.8-0.2,1.1-0.3c8.7,0,17.4,0,26.1,0
		c0.1,0,0.2,0.1,0.2,0.1c2.4,0.4,4.4,2.2,4.8,4.6c0.2,0.9,0.1,1.8,0.1,2.7c0,0.1,0,0.3,0,0.4c0.2,0,0.3,0,0.4,0c3.9,0,7.9,0,11.8,0
		c1.8,0,3.1,1.2,3.1,3.1c0,28.7,0,47.6,0,76.3c0,1.9-1.5,3.1-3.1,3.1c-20.3,0-40.5,0-60.8,0c-0.1,0-0.2,0-0.3,0
		c-0.8,0-1.5-0.4-2.1-1C-544.7,444.6-544.9,444-545.1,443.5z M-539.2,369.3c0,26.9,0,43.9,0,70.8c18.4,0,36.8,0,55.2,0
		c0-26.9,0-43.9,0-70.8c-3.2,0-6.3,0-9.4,0c0,0.1,0,0.2,0,0.3c0,3.2-2.6,5.8-5.8,5.8c-8.2,0-16.5,0-24.7,0c-2.8,0-5.3-2.1-5.7-4.9
		c-0.1-0.4-0.1-0.8-0.1-1.2C-532.9,369.3-536.1,369.3-539.2,369.3z M-523.9,369.5c8.2,0,16.4,0,24.6,0c0-2.6,0-5.3,0-7.9
		c-8.2,0-16.4,0-24.6,0C-523.9,364.3-523.9,366.9-523.9,369.5z"/>
	<path class="st0" d="M-517.6,421.9c0.7-1,1.4-1.9,2-2.8c5.6-7.8,11.2-15.6,16.9-23.4c0.8-1.2,2.3-1.6,3.6-1.2
		c1.3,0.5,2.2,1.7,2.1,3.2c0,0.6-0.2,1.2-0.6,1.7c-3.8,5.3-7.6,10.6-11.5,15.9c-3.3,4.6-6.6,9.1-9.9,13.7c-0.7,0.9-1.5,1.5-2.7,1.5
		c-1.1,0-2-0.4-2.6-1.3c-2.1-2.9-4.1-5.7-6.2-8.6c-0.9-1.3-1.9-2.6-2.8-3.9c-0.7-1.1-0.8-2.2-0.2-3.4c0.6-1.1,1.6-1.7,2.9-1.7
		c1,0,1.9,0.5,2.5,1.3c2.1,2.9,4.2,5.8,6.3,8.7C-517.8,421.8-517.7,421.9-517.6,421.9z"/>
	<path class="st0" d="M-511.5,382.7c5.1,0,10.2,0,15.3,0c1.3,0,2.2,0.6,2.7,1.7c0.5,1.2,0.3,2.3-0.5,3.2c-0.5,0.6-1.2,0.9-2,0.9
		c-0.1,0-0.1,0-0.2,0c-10.2,0-20.5,0-30.7,0c-1.3,0-2.4-0.8-2.8-1.9c-0.4-1.2-0.1-2.5,0.9-3.3c0.6-0.5,1.2-0.7,1.9-0.7
		C-521.8,382.7-516.7,382.7-511.5,382.7z"/>
	<path class="st0" d="M-520.7,399.4c-2.1,0-4.1,0-6.2,0c-1.4,0-2.6-1-2.9-2.3c-0.4-1.8,1-3.6,2.9-3.6c4.1,0,8.2,0,12.3,0
		c1.6,0,3,1.3,3,2.9c0,1.7-1.3,3-3,3C-516.6,399.4-518.7,399.4-520.7,399.4z"/>
</g>
</svg>
