<?xml version="1.0" encoding="utf-8"?>
<!-- Generator: Adobe Illustrator 19.0.1, SVG Export Plug-In . SVG Version: 6.00 Build 0)  -->
<svg version="1.1" id="Calque_1" xmlns="http://www.w3.org/2000/svg" xmlns:xlink="http://www.w3.org/1999/xlink" x="0px" y="0px"
	 viewBox="-575 337.4 127.6 127.6" style="enable-background:new -575 337.4 127.6 127.6;" xml:space="preserve">
<style type="text/css">
	.st0{fill:#FFFFFF;}
</style>
<g>
	<path class="st0" d="M-544.3,447.7c0-28.5,0-56.9,0-85.4c0,0,0,0,0,0c0.4-1.7,1.4-2.4,3.1-2.4c3.8,0,7.6,0,11.4,0
		c0.1,0,0.2,0,0.4,0c0-0.1,0-0.2,0-0.3c0-0.5,0-1,0-1.5c0-2.5,1.6-4.6,3.9-5.4c0.4-0.1,0.7-0.2,1.1-0.3c8.5,0,17,0,25.5,0
		c0.1,0,0.1,0,0.2,0.1c2.3,0.4,4.3,2.2,4.7,4.5c0.2,0.9,0.1,1.8,0.1,2.6c0,0.1,0,0.2,0,0.4c0.2,0,0.3,0,0.4,0c3.9,0,7.7,0,11.6,0
		c1.8,0,3,1.2,3,3c0,28.1,0,56.1,0,84.2c0,1.8-1.4,3.1-3,3c-19.8,0-39.6,0-59.5,0c-0.1,0-0.2,0-0.3,0c-0.8,0-1.5-0.4-2.1-1
		C-544,448.7-544.2,448.2-544.3,447.7z M-538.6,365.5c0,26.3,0,52.6,0,78.8c18,0,36,0,54,0c0-26.3,0-52.5,0-78.8c-3.1,0-6.1,0-9.2,0
		c0,0.1,0,0.2,0,0.3c0,3.1-2.6,5.7-5.7,5.7c-8.1,0-16.1,0-24.2,0c-2.8,0-5.2-2.1-5.6-4.8c-0.1-0.4-0.1-0.7-0.1-1.1
		C-532.5,365.5-535.5,365.5-538.6,365.5z M-523.6,365.7c8,0,16.1,0,24.1,0c0-2.6,0-5.2,0-7.7c-8,0-16.1,0-24.1,0
		C-523.6,360.6-523.6,363.1-523.6,365.7z"/>
	<path class="st0" d="M-518.7,424.8c0.8-1.1,1.6-2.2,2.4-3.3c6.6-9.2,13.2-18.4,19.8-27.5c1-1.4,2.7-1.9,4.3-1.4
		c1.6,0.6,2.6,2.1,2.5,3.7c0,0.7-0.3,1.4-0.7,2c-4.5,6.2-9,12.5-13.5,18.7c-3.9,5.4-7.7,10.7-11.6,16.1c-0.8,1.1-1.8,1.8-3.2,1.8
		c-1.3,0-2.3-0.5-3.1-1.6c-2.4-3.4-4.8-6.7-7.3-10.1c-1.1-1.5-2.2-3-3.3-4.6c-0.9-1.2-1-2.6-0.3-3.9c0.7-1.3,1.9-2,3.4-2
		c1.2,0,2.2,0.5,3,1.5c2.5,3.4,4.9,6.8,7.4,10.2C-518.9,424.6-518.8,424.7-518.7,424.8z"/>
	<path class="st0" d="M-511.6,378.6c6,0,12,0,18,0c1.5,0,2.6,0.7,3.2,2c0.6,1.4,0.4,2.7-0.6,3.8c-0.6,0.7-1.5,1.1-2.4,1.1
		c-0.1,0-0.1,0-0.2,0c-12,0-24.1,0-36.1,0c-1.5,0-2.8-0.9-3.3-2.3c-0.5-1.4-0.1-2.9,1-3.9c0.6-0.5,1.4-0.8,2.3-0.8
		C-523.6,378.6-517.6,378.6-511.6,378.6z"/>
	<path class="st0" d="M-522.4,398.3c-2.4,0-4.8,0-7.3,0c-1.7,0-3.1-1.1-3.4-2.7c-0.5-2.2,1.2-4.2,3.4-4.2c4.8,0,9.7,0,14.5,0
		c1.9,0,3.5,1.5,3.5,3.4c0,2-1.5,3.5-3.5,3.5C-517.6,398.3-520,398.3-522.4,398.3z"/>
</g>
</svg>
