<?xml version="1.0" encoding="utf-8"?>
<!-- Generator: Adobe Illustrator 19.0.1, SVG Export Plug-In . SVG Version: 6.00 Build 0)  -->
<svg version="1.1" id="Calque_1" xmlns="http://www.w3.org/2000/svg" xmlns:xlink="http://www.w3.org/1999/xlink" x="0px" y="0px"
	 viewBox="-575 337.4 127.6 127.6" style="enable-background:new -575 337.4 127.6 127.6;" xml:space="preserve">
<style type="text/css">
	.st0{fill:#FFFFFF;}
</style>
<g>
	<g>
		<path class="st0" d="M-511.2,372.4c-21.4,0-38.8,17.4-38.8,38.8c0,21.4,17.4,38.8,38.8,38.8c21.4,0,38.8-17.4,38.8-38.8
			C-472.4,389.7-489.7,372.4-511.2,372.4z M-511.2,441.4c-16.7,0-30.2-13.5-30.2-30.2c0-16.7,13.5-30.2,30.2-30.2
			c16.7,0,30.2,13.5,30.2,30.2C-481,427.8-494.5,441.4-511.2,441.4z"/>
	</g>
	<g>
		<polygon class="st0" points="-497,398 -497,390 -525,390 -525,390 -525,390 -525,430 -525,430 -525,430 -497,430 -497,422 
			-515,422 -515,414 -498,414 -498,406 -515,406 -515,398 		"/>
	</g>
	<g>
		<polygon class="st0" points="-512.4,364 -505,364 -495.3,354 -508.5,354 		"/>
	</g>
</g>
</svg>
