<?xml version="1.0" encoding="utf-8"?>
<!-- Generator: Adobe Illustrator 19.0.1, SVG Export Plug-In . SVG Version: 6.00 Build 0)  -->
<svg version="1.1" id="Calque_1" xmlns="http://www.w3.org/2000/svg" xmlns:xlink="http://www.w3.org/1999/xlink" x="0px" y="0px"
	 viewBox="-575 337.4 127.6 127.6" style="enable-background:new -575 337.4 127.6 127.6;" xml:space="preserve">
<style type="text/css">
	.st0{fill:#FFFFFF;}
</style>
<g>
	<g>
		<path class="st0" d="M-511.2,372.6c-17.9,0-32.3,14.5-32.3,32.3s14.5,32.3,32.3,32.3s32.3-14.5,32.3-32.3
			S-493.3,372.6-511.2,372.6z M-511.2,430.1c-13.9,0-25.2-11.3-25.2-25.2s11.3-25.2,25.2-25.2c13.9,0,25.2,11.3,25.2,25.2
			S-497.3,430.1-511.2,430.1z"/>
	</g>
	<g>
		<polygon class="st0" points="-500,394 -500,388 -523,388 -523,388 -523,388 -523,421 -523,421 -523,421 -500,421 -500,414 
			-515,414 -515,408 -501,408 -501,401 -515,401 -515,394 		"/>
	</g>
	<g>
		<polygon class="st0" points="-512.2,366 -506,366 -497.9,357 -508.9,357 		"/>
	</g>
</g>
</svg>
